# xmcd
#
# Track frame offsets: 
#        150
#        14441
#        32095
#        51798
#        63586
#
# Disc length: 1081 seconds
#
# Revision: 0
# Processed by: cddbd v1.5.2PL0 Copyright (c) Steve Scherf et al.
# Submitted via: ExactAudioCopyFreeDBPlugin 1.0
#
DISCID=3d043705
DTITLE=The Wagon Tales - The Wagon Tales EP
DYEAR=2010
DGENRE=Bluegrass
TTITLE0=Crooked Stones
TTITLE1=Dad, You Better Start Drinking
TTITLE2=Lie And Wait
TTITLE3=Rest Here For A While
TTITLE4=I'm Here
EXTD=
EXTT0=
EXTT1=
EXTT2=
EXTT3=
EXTT4=
PLAYORDER=
